{"title":"Lucy 2014 HDCAM V1 NEW AUDIO x264 Pimp4003","uid":10641648,"size":1070860598,"categoryP":"video","categoryS":"movies","magnet":"?xt=urn:btih:efb685ec8fdf66656647f9804a59fe08e32e978e&amp;dn=Lucy+2014+HDCAM+V1+NEW+AUDIO+x264+Pimp4003&amp;tr=udp%3A%2F%2Ftracker.openbittorrent.com%3A80&amp;tr=udp%3A%2F%2Fopen.demonii.com%3A1337&amp;tr=udp%3A%2F%2Ftracker.coppersurfer.tk%3A6969&amp;tr=udp%3A%2F%2Fexodus.desync.com%3A6969","seeders":33,"leechers":0,"uploader":"shawnmurthy","files":-1,"time":1406468994,"description":"[color=red][b]FIRST OF ALL I WANT PEOPLE TO KNOW I AM NOT A DUMPER LIKE USER HARKS87 OR ANY OTHER DUMPER....I DO MY OWN ENCODES AND I ALWAYS WILL....SOURCE IS PINONEER222.....FIRST 5 MINUTES IS IN LIKE A LITTLE SIDE TITLED BUT MOVIE DOES GET CENTERED....ENTIRE VIDEO IS DARK CAN BARELY SEE ANYTHING....SO I BRIGHTENED THE ENTIRE VIDEO SO THAT YOU CAN ACTUALLY SEE THE MOVIE AND CHARACTERS IT IS BETTER THEN BEFORE FOR SURE....AUDIO WAS OUT OF SYNC...SO FIXED THAT WITH NEW AUDIO SOURCE...........ENJOY...PIMP4003 OUT[/b][/color]\n\n[b]SOURCE VIDEO -  PINONEER222\nSOURCE AUDIO - PIMP4003[/b]\n\n[IMG]http://i.imgur.com/Q7K4oJu.png[/IMG]\n\n[IMG]http://i.imgur.com/69uL5sU.jpg[/IMG]\n\n[URL=http://istoreimg.com/i/53d4e26015e2a.html][IMG]http://istoreimg.com/upload/small/2014/07/27/53d4e26015dee.jpg[/IMG][/URL]\n\nREQUESTS, SCREENSHOTS, VIDEO INFO, SAMPLE AND FOR EXCLUSIVE RELEASES VISIT BELOW LINK\n\nLucy 2014 HDCAM V1 NEW AUDIO x264 Pimp4003\n\nENJOY\n\nPIMP4003\n\nVideo\nID                                       : 2\nFormat                                   : AVC\nFormat/Info                              : Advanced Video Codec\nFormat profile                           : &lt;a class=&quot;__cf_email__&quot; href=&quot;/cdn-cgi/l/email-protection&quot; data-cfemail=&quot;cc8eadbfa9a0a5a2a98c80ffe2fc&quot;&gt;[email&amp;#160;protected]&lt;/a&gt;&lt;script cf-hash='f9e31' type=&quot;text/javascript&quot;&gt;\n/* &lt;![CDATA[ */!function(){try{var t=&quot;currentScript&quot;in document?document.currentScript:function(){for(var t=document.getElementsByTagName(&quot;script&quot;),e=t.length;e--;)if(t[e].getAttribute(&quot;cf-hash&quot;))return t[e]}();if(t&amp;&amp;t.previousSibling){var e,r,n,i,c=t.previousSibling,a=c.getAttribute(&quot;data-cfemail&quot;);if(a){for(e=&quot;&quot;,r=parseInt(a.substr(0,2),16),n=2;a.length-n;n+=2)i=parseInt(a.substr(n,2),16)^r,e+=String.fromCharCode(i);e=document.createTextNode(e),c.parentNode.replaceChild(e,c)}}}catch(u){}}();/* ]]&gt; */&lt;/script&gt;\nFormat settings, CABAC                   : No\nFormat settings, ReFrames                : 1 frame\nFormat settings, GOP                     : M=1, N=25\nMuxing mode                              : Container profile=&lt;a class=&quot;__cf_email__&quot; href=&quot;/cdn-cgi/l/email-protection&quot; data-cfemail=&quot;480a293b2d2421262d087c6679&quot;&gt;[email&amp;#160;protected]&lt;/a&gt;&lt;script cf-hash='f9e31' type=&quot;text/javascript&quot;&gt;\n/* &lt;![CDATA[ */!function(){try{var t=&quot;currentScript&quot;in document?document.currentScript:function(){for(var t=document.getElementsByTagName(&quot;script&quot;),e=t.length;e--;)if(t[e].getAttribute(&quot;cf-hash&quot;))return t[e]}();if(t&amp;&amp;t.previousSibling){var e,r,n,i,c=t.previousSibling,a=c.getAttribute(&quot;data-cfemail&quot;);if(a){for(e=&quot;&quot;,r=parseInt(a.substr(0,2),16),n=2;a.length-n;n+=2)i=parseInt(a.substr(n,2),16)^r,e+=String.fromCharCode(i);e=document.createTextNode(e),c.parentNode.replaceChild(e,c)}}}catch(u){}}();/* ]]&gt; */&lt;/script&gt;\nCodec ID                                 : avc1\nCodec ID/Info                            : Advanced Video Coding\nDuration                                 : 1h 22mn\nBit rate                                 : 1 560 Kbps\nWidth                                    : 640 pixels\nHeight                                   : 360 pixels\nDisplay aspect ratio                     : 16:9\nFrame rate mode                          : Constant\nFrame rate                               : 23.976 fps\nOriginal frame rate                      : 23.000 fps\nColor space                              : YUV\nChroma subsampling                       : 4:2:0\nBit depth                                : 8 bits\nScan type                                : Progressive\nBits/(Pixel*Frame)                       : 0.282\nStream size                              : 921 MiB (90%)\nWriting library                          : \nLanguage                                 : English\n\nAudio\nID                                       : 1\nFormat                                   : AAC\nFormat/Info                              : Advanced Audio Codec\nFormat profile                           : LC\nCodec ID                                 : 40\nDuration                                 : 1h 22mn\nBit rate mode                            : Constant\nBit rate                                 : 165 Kbps\nChannel(s)                               : 2 channels\nChannel positions                        : Front: L R\nSampling rate                            : 48.0 KHz\nCompression mode                         : Lossy\nStream size                              : 97.7 MiB (10%)\nLanguage                                 : English\n","torrent":{"xt":"urn:btih:efb685ec8fdf66656647f9804a59fe08e32e978e","amp;dn":"Lucy+2014+HDCAM+V1+NEW+AUDIO+x264+Pimp4003","amp;tr":["udp%3A%2F%2Ftracker.openbittorrent.com%3A80","udp%3A%2F%2Fopen.demonii.com%3A1337","udp%3A%2F%2Ftracker.coppersurfer.tk%3A6969","udp%3A%2F%2Fexodus.desync.com%3A6969"],"infoHash":"efb685ec8fdf66656647f9804a59fe08e32e978e","infoHashBuffer":{"type":"Buffer","data":[239,182,133,236,143,223,102,101,102,71,249,128,74,89,254,8,227,46,151,142]},"announce":[],"urlList":[]}}